<svg xmlns="http://www.w3.org/2000/svg" viewBox="0 0 32 32">
  <rect width="32" height="32" rx="6" fill="#00D4FF"/>
  <g transform="translate(4, 3) scale(0.75)">
    <!-- Shaka hand - yellow with navy outline -->
    <path d="M8 28c-1.5 0-2.5-1-3-2.5L3.5 18c-.3-1-.1-2 .5-2.8.6-.8 1.5-1.2 2.5-1.2h1V6c0-1.7 1.3-3 3-3s3 1.3 3 3v4h1V5c0-1.7 1.3-3 3-3s3 1.3 3 3v5h1V6c0-1.7 1.3-3 3-3s3 1.3 3 3v14c0 4.4-3.6 8-8 8H8z" 
          fill="#FFE500" 
          stroke="#001A33" 
          stroke-width="2"
          stroke-linejoin="round"/>
    <!-- Thumb -->
    <path d="M25 14h3c1.7 0 3 1.3 3 3v2c0 1.7-1.3 3-3 3h-3" 
          fill="#FFE500" 
          stroke="#001A33" 
          stroke-width="2"
          stroke-linejoin="round"/>
    <!-- Pinky -->
    <path d="M6.5 14H4c-1.7 0-3-1.3-3-3V9c0-1.7 1.3-3 3-3h2.5" 
          fill="#FFE500" 
          stroke="#001A33" 
          stroke-width="2"
          stroke-linejoin="round"/>
  </g>
</svg>
